<?xml version="1.0" encoding="utf-8"?>
<!-- Generator: Adobe Illustrator 26.0.0, SVG Export Plug-In . SVG Version: 6.00 Build 0)  -->
<svg version="1.1" xmlns="http://www.w3.org/2000/svg" xmlns:xlink="http://www.w3.org/1999/xlink" x="0px" y="0px"
	 viewBox="0 0 800 600" style="enable-background:new 0 0 800 600;" xml:space="preserve">
<style type="text/css">
	.st0{display:none;}
	.st1{display:inline;}
	.st2{fill:#ECECEC;}
	.st3{fill:#5C7C0E;}
	.st4{fill:#76A21E;}
	.st5{fill:#1B1B2F;}
	.st6{fill:#0E0E1C;}
	.st7{display:inline;fill:#1B1B2F;}
	.st8{display:inline;fill:#EE7353;}
	.st9{fill:none;stroke:#FFFFFF;stroke-miterlimit:10;}
	.st10{display:inline;fill:#ED8C73;}
	.st11{display:inline;fill:#91A9D8;}
	.st12{display:inline;fill:#1A1C1C;}
	.st13{display:inline;fill:#D74015;}
	.st14{display:inline;fill:#FF8F6A;}
	.st15{display:inline;fill:#E43F5A;}
	.st16{display:inline;fill:#FFFFFF;}
	.st17{fill:#E43F5A;}
	.st18{fill:#FFFFFF;}
	.st19{display:inline;fill:#C7D2EF;}
	.st20{display:inline;fill:none;stroke:#213049;stroke-miterlimit:10;}
	.st21{display:inline;fill:#4273CC;}
	.st22{display:inline;fill:none;stroke:#D74015;stroke-miterlimit:10;}
	.st23{display:inline;fill:none;stroke:#A5213A;stroke-miterlimit:10;}
	.st24{display:inline;fill:none;}
	.st25{font-family:'Roboto-Regular';}
	.st26{font-size:24px;}
	.st27{fill:none;stroke:#BFD9FF;stroke-width:1.1086;stroke-miterlimit:10;}
	.st28{fill:url(#SVGID_1_);}
	.st29{fill:none;stroke:#FFFFFF;stroke-width:1.1086;stroke-miterlimit:10;}
	.st30{opacity:0.39;fill:none;stroke:#A1C2FF;stroke-width:0.5543;stroke-miterlimit:10;}
	.st31{fill:#E6F4FF;}
	.st32{fill:#94C3FF;}
	.st33{fill:#EE7353;}
	.st34{fill:#FF8D68;}
	.st35{fill:#1A1C1C;}
	.st36{opacity:0.39;fill:#A1C2FF;}
	.st37{fill:#ED8C73;}
	.st38{opacity:0.7;fill:#A1C2FF;}
	.st39{fill:none;stroke:#4361C4;stroke-width:0.2806;stroke-miterlimit:10;}
	.st40{fill:#4361C4;}
	.st41{clip-path:url(#SVGID_00000008126027935997666950000003524402837620261771_);fill:#EE7353;}
	.st42{clip-path:url(#SVGID_00000008126027935997666950000003524402837620261771_);}
	.st43{fill:#FF8F6A;}
	.st44{clip-path:url(#SVGID_00000008126027935997666950000003524402837620261771_);fill:#1A1C1C;}
	.st45{clip-path:url(#SVGID_00000008126027935997666950000003524402837620261771_);fill:#FF8F6A;}
	.st46{clip-path:url(#SVGID_00000049916715424373025410000018309410188349281670_);fill:#1A1C1C;}
	.st47{clip-path:url(#SVGID_00000049916715424373025410000018309410188349281670_);fill:#FF8F6A;}
	.st48{clip-path:url(#SVGID_00000049916715424373025410000018309410188349281670_);fill:#EE7353;}
	.st49{clip-path:url(#SVGID_00000049916715424373025410000018309410188349281670_);}
	.st50{fill:#F9FBFC;}
	.st51{fill:#BFD9FF;}
	.st52{fill:none;stroke:#505E83;stroke-width:0.5192;stroke-miterlimit:10;}
	.st53{fill:#C7D2EF;}
	.st54{fill:#FF7759;}
	.st55{fill:none;stroke:#213049;stroke-width:0.6659;stroke-miterlimit:10;}
	.st56{fill:none;stroke:#2A2E59;stroke-width:0.6659;stroke-miterlimit:10;}
	.st57{fill:none;stroke:#E66657;stroke-width:0.6659;stroke-miterlimit:10;}
	.st58{fill:none;stroke:#A5213A;stroke-width:0.6659;stroke-miterlimit:10;}
	.st59{fill:none;stroke:#A6D0F4;stroke-width:0.5347;stroke-miterlimit:10;}
	.st60{fill:#EB7754;}
	.st61{fill:#D74015;}
	.st62{fill:none;stroke:#D74015;stroke-width:0.5347;stroke-miterlimit:10;}
	.st63{fill:none;stroke:#663136;stroke-width:0.5347;stroke-miterlimit:10;}
</style>
<g id="Layer_1" class="st0">
	<g class="st1">
		<path class="st2" d="M343.44,188.29C224.11,273.24,92.75,224.47,117.6,340.88c33.18,155.39,439.23,278.11,548.71-10.22
			C749.87,110.6,544.69,45.02,343.44,188.29z"/>
		<path class="st2" d="M286,171.69c-125.82,71.15-188.13,27.76-136.48-47S410.16,101.48,286,171.69z"/>
	</g>
	<g class="st1">
		<g>
			<g>
				<path class="st3" d="M512.3,445.5c0,0,5.37,28.23,12.49,34.97c7.12,6.75,33.43,2.25,33.43,2.25L512.3,445.5z"/>
				<path class="st4" d="M589.75,551.43c0,0-7.24-58.96-13.99-69.45c-3.55-5.52-63.45-36.47-63.45-36.47s9.28,17.47,23.98,37.47
					c18.27,24.86,35.81,10.84,40.47,15.49c4.66,4.65,10.49,52.96,10.49,52.96H589.75z"/>
			</g>
			<g>
				<path class="st3" d="M554.91,402.17c0.75-5.65,5.32-22.12,5.32-22.12s6.3,35.53,16.11,70.07
					C576.34,450.13,552.13,423,554.91,402.17z"/>
				<path class="st4" d="M590.46,551.43c0,0-0.75-73.95-4.25-86.44c-3.5-12.49-31.3-62.82-31.3-62.82s-4.96,30.4-3.67,40.33
					c2.57,19.83,32.04,30.1,33.91,33.66c1.87,3.56,3.19,75.26,3.19,75.26H590.46z"/>
			</g>
			<path class="st4" d="M585.28,551.43c0,0,11.42-74.32,11.42-78.07c0-3.75-7.49-37.47,0-54.34c7.49-16.86,31.1-46.84,31.1-46.84
				s3.75,38.22,0,56.21c-3.75,17.99-27.78,43.09-28.32,46.47c-0.54,3.37-11.03,76.57-11.03,76.57H585.28z"/>
			<g>
				<path class="st3" d="M659.29,417.9c0,0,1.66,22.48-0.59,32.6s-29.23,17.61-29.23,17.61S654.41,436.26,659.29,417.9z"/>
				<path class="st4" d="M588.62,551.43c0,0,8.61-62.33,17.05-75.44c8.44-13.12,27.55-25.11,35.04-32.6
					c7.49-7.49,18.58-25.48,18.58-25.48s-5.09,32.23-11.09,45.72s-35.8,15.86-40.47,16.86c-4.67,1.01-16.49,70.95-16.49,70.95
					H588.62z"/>
			</g>
		</g>
		<g>
			<path class="st5" d="M560.12,505.67l3.19,42.38c0.53,7.01,6.37,12.43,13.4,12.43h29.18c7.03,0,12.87-5.42,13.4-12.43l3.19-42.38
				H560.12z"/>
			<path class="st6" d="M593.18,560.48h12.71c7.03,0,12.87-5.42,13.4-12.43l3.19-42.38h-11.24
				C608.06,519.35,601.92,542.5,593.18,560.48z"/>
		</g>
	</g>
	<path class="st7" d="M311.35,544.48V101.84c0-8.84,7.16-16,16-16h205.97c8.84,0,16,7.16,16,16v442.63c0,8.84-7.16,16-16,16H327.35
		C318.51,560.48,311.35,553.31,311.35,544.48z"/>
	<rect x="321.35" y="107.96" class="st8" width="217.97" height="430.41"/>
	<g class="st1">
		<g>
			<g>
				<path class="st9" d="M343.51,368.21v30.99c0,1.1,0.9,2,2,2H513.1c1.1,0,2-0.9,2-2v-30.99c0-1.1-0.9-2-2-2H345.51
					C344.41,366.21,343.51,367.1,343.51,368.21z"/>
				<path class="st9" d="M343.51,355.24v4.79c0,1.1,0.9,2,2,2h40.13c1.1,0,2-0.9,2-2v-4.79c0-1.1-0.9-2-2-2h-40.13
					C344.41,353.24,343.51,354.13,343.51,355.24z"/>
			</g>
			<g>
				<path class="st9" d="M483.75,393.66v1.46c0,1.1,0.9,2,2,2h1.46c1.1,0,2-0.9,2-2v-1.46c0-1.1-0.9-2-2-2h-1.46
					C484.65,391.66,483.75,392.56,483.75,393.66z"/>
				<path class="st9" d="M493.56,393.66v1.46c0,1.1,0.9,2,2,2h1.46c1.1,0,2-0.9,2-2v-1.46c0-1.1-0.9-2-2-2h-1.46
					C494.45,391.66,493.56,392.56,493.56,393.66z"/>
				<path class="st9" d="M503.36,393.66v1.46c0,1.1,0.9,2,2,2h1.46c1.1,0,2-0.9,2-2v-1.46c0-1.1-0.9-2-2-2h-1.46
					C504.26,391.66,503.36,392.56,503.36,393.66z"/>
			</g>
		</g>
		<g>
			<g>
				<path class="st9" d="M343.51,426.86v30.99c0,1.1,0.9,2,2,2H513.1c1.1,0,2-0.9,2-2v-30.99c0-1.1-0.9-2-2-2H345.51
					C344.41,424.86,343.51,425.76,343.51,426.86z"/>
				<path class="st9" d="M343.51,413.89v4.79c0,1.1,0.9,2,2,2h40.13c1.1,0,2-0.9,2-2v-4.79c0-1.1-0.9-2-2-2h-40.13
					C344.41,411.89,343.51,412.79,343.51,413.89z"/>
			</g>
			<g>
				<path class="st9" d="M483.75,452.32v1.46c0,1.1,0.9,2,2,2h1.46c1.1,0,2-0.9,2-2v-1.46c0-1.1-0.9-2-2-2h-1.46
					C484.65,450.32,483.75,451.22,483.75,452.32z"/>
				<path class="st9" d="M493.56,452.32v1.46c0,1.1,0.9,2,2,2h1.46c1.1,0,2-0.9,2-2v-1.46c0-1.1-0.9-2-2-2h-1.46
					C494.45,450.32,493.56,451.22,493.56,452.32z"/>
				<path class="st9" d="M503.36,452.32v1.46c0,1.1,0.9,2,2,2h1.46c1.1,0,2-0.9,2-2v-1.46c0-1.1-0.9-2-2-2h-1.46
					C504.26,450.32,503.36,451.22,503.36,452.32z"/>
			</g>
		</g>
		<g>
			<g>
				<path class="st9" d="M343.51,485.52v30.99c0,1.1,0.9,2,2,2H513.1c1.1,0,2-0.9,2-2v-30.99c0-1.1-0.9-2-2-2H345.51
					C344.41,483.52,343.51,484.42,343.51,485.52z"/>
				<path class="st9" d="M343.51,472.55v4.79c0,1.1,0.9,2,2,2h40.13c1.1,0,2-0.9,2-2v-4.79c0-1.1-0.9-2-2-2h-40.13
					C344.41,470.55,343.51,471.44,343.51,472.55z"/>
			</g>
			<g>
				<path class="st9" d="M483.75,510.98v1.46c0,1.1,0.9,2,2,2h1.46c1.1,0,2-0.9,2-2v-1.46c0-1.1-0.9-2-2-2h-1.46
					C484.65,508.98,483.75,509.87,483.75,510.98z"/>
				<path class="st9" d="M493.56,510.98v1.46c0,1.1,0.9,2,2,2h1.46c1.1,0,2-0.9,2-2v-1.46c0-1.1-0.9-2-2-2h-1.46
					C494.45,508.98,493.56,509.87,493.56,510.98z"/>
				<path class="st9" d="M503.36,510.98v1.46c0,1.1,0.9,2,2,2h1.46c1.1,0,2-0.9,2-2v-1.46c0-1.1-0.9-2-2-2h-1.46
					C504.26,508.98,503.36,509.87,503.36,510.98z"/>
			</g>
		</g>
		<g>
			<line class="st9" x1="359.59" y1="375.24" x2="499.02" y2="375.24"/>
			<line class="st9" x1="359.59" y1="383.71" x2="499.02" y2="383.71"/>
			<line class="st9" x1="359.59" y1="392.17" x2="396.43" y2="392.17"/>
		</g>
		<g>
			<line class="st9" x1="359.59" y1="433.9" x2="499.02" y2="433.9"/>
			<line class="st9" x1="359.59" y1="442.36" x2="499.02" y2="442.36"/>
			<line class="st9" x1="359.59" y1="450.83" x2="396.43" y2="450.83"/>
		</g>
		<g>
			<line class="st9" x1="359.59" y1="492.55" x2="499.02" y2="492.55"/>
			<line class="st9" x1="359.59" y1="501.02" x2="499.02" y2="501.02"/>
			<line class="st9" x1="359.59" y1="509.48" x2="396.43" y2="509.48"/>
		</g>
	</g>
	<path class="st10" d="M113.58,108.7h106.3c3.31,0,6,2.69,6,6v44.53h-0.04v17.1l-10.63-17.1H113.58c-3.31,0-6-2.69-6-6V114.7
		C107.58,111.38,110.26,108.7,113.58,108.7z"/>
	<g class="st1">
		<line class="st9" x1="122.34" y1="122.36" x2="211.12" y2="122.36"/>
		<line class="st9" x1="122.34" y1="133.96" x2="211.12" y2="133.96"/>
		<line class="st9" x1="122.34" y1="145.56" x2="211.12" y2="145.56"/>
	</g>
	<path class="st10" d="M503.83,273.93v67.43c0,4.42,3.58,8,8,8h67.43c4.42,0,8-3.58,8-8v-67.43c0-4.42-3.58-8-8-8h-67.43
		C507.41,265.93,503.83,269.51,503.83,273.93z"/>
	<path class="st11" d="M594.05,164.38v51.69c0,4.42,3.58,8,8,8h51.69c4.42,0,8-3.58,8-8v-51.69c0-4.42-3.58-8-8-8h-51.69
		C597.63,156.38,594.05,159.96,594.05,164.38z"/>
	<path class="st12" d="M319.29,329.76c-1.93,9.97-46.26,20.91-46.26,20.91L214.7,329.7l69.14-21.27L319.29,329.76z"/>
	<path class="st13" d="M329.46,502.09l12.77,31.79c0,0,12.42,0.55,17.52-2.49l-8.45-38.98L329.46,502.09z"/>
	<path class="st13" d="M190.08,496.44l-2.97,34.13c0,0,10.83,6.1,16.75,5.7l10.08-38.59L190.08,496.44z"/>
	<path class="st14" d="M342.24,533.89v17.99c0,0,10.73,1.61,17.52,0c6.78-1.61,38.28-14.14,38.28-14.14s-1.29-7.07-7.71-9
		c-6.43-1.93-30.57,2.66-30.57,2.66L342.24,533.89z"/>
	<path class="st15" d="M203.86,536.27c0,0,3.28,9,3.28,16.32c0,0,0,5.71-11.23,7.64c-8.47,1.46-24.45-4.18-24.45-4.18
		s3.21-15.63,15.64-25.48L203.86,536.27z"/>
	<path class="st16" d="M188.16,540.43c-6.13,0.12-12.36,12.17-12.36,12.17l-3.01-1.01c-0.95,2.71-1.32,4.48-1.32,4.48
		s15.98,5.63,24.45,4.18c11.23-1.93,11.23-7.64,11.23-7.64c0-0.67-0.04-1.36-0.09-2.05l-2.45,2.05
		C204.61,552.59,194.28,540.31,188.16,540.43z"/>
	<path class="st15" d="M183.42,533.93c0,0-1.99-14.51,7.97-10.01c9.96,4.5,10.82,12.93,10.82,12.93L183.42,533.93z"/>
	<g class="st1">
		<path class="st17" d="M390.32,528.74c-3.61-1.08-12.81-0.11-20.19,0.95l0,0c0,0,1.54-11.24-4.56-8.02
			c-6.11,3.21-5.82,9.73-5.82,9.73l-2.86,9.03l-14.66-6.54c-3.21,10.65,0,21.85,0,21.85s10.73-2.25,17.52-3.86
			c6.78-1.61,38.28-14.14,38.28-14.14S396.75,530.67,390.32,528.74z"/>
		<path class="st18" d="M390.32,528.74c-1.68-0.5-4.56-0.56-7.9-0.37c-1.92,5.74-2.07,12.06-2.07,12.06
			c-13.47,5.52-30.76,9.5-38.97,11.22c0.4,2.52,0.85,4.09,0.85,4.09s10.73-2.25,17.52-3.86c6.78-1.61,38.28-14.14,38.28-14.14
			S396.75,530.67,390.32,528.74z"/>
	</g>
	<path class="st19" d="M231.96,305.7c0,0-31.03,57.01-39.98,99.36c-8.94,42.35-13.41,118.21-13.41,118.21s16,6.43,35.31,0
		c0,0,21.18-91.47,25.61-104.76s46.9-106.2,46.9-106.2L231.96,305.7z"/>
	<path class="st19" d="M305.72,308.43c0,0,21.92,56.71,28.99,84.99c7.07,28.29,27.5,126.64,27.5,126.64s-17.03,11.76-33.33,8.91
		c0,0-37.69-107.56-47.68-132.21c-9.99-24.65-31.98-88.33-31.98-88.33H305.72z"/>
	<path class="st20" d="M207.78,518.74c0,0,15.7-75.4,24.71-102.61c9.01-27.21,34.5-86.36,34.5-86.36"/>
	<path class="st20" d="M264.52,335.56c0,0,23.97,53.51,37.12,96.82c13.15,43.32,30.51,90.67,30.51,90.67"/>
	<path class="st21" d="M324.65,516.92c0,0-3.31,3.17,4.23,12.05c0,0,12.18,8.88,33.33-8.91c0,0,2.86-6.24-2.46-11.8
		C359.75,508.26,340.09,521.06,324.65,516.92z"/>
	<path class="st21" d="M179.51,509.36c0,0-5.67,7.28-0.94,13.92c0,0,14.54,10.93,35.31,0c0,0,5.63-5.55,2.59-11.13
		C216.46,512.14,184.89,517.29,179.51,509.36z"/>
	<path class="st14" d="M382.61,189.4c0,0-1.05-12.29,1.89-17.28c2.93-4.99,5.61-7.01,8.47-13.83c1.21-2.89,3.68-0.54,3.46,1.61
		c0,0,2.16-4.5,3.57-2.89s0,5.82,0,5.82s1.41-0.95,2.05,0.87c0.64,1.83-2.05,11.63-2.05,11.63s1.73-7.55,3.18-5.14
		c1.45,2.41-2.41,12.78-2.41,12.78s-0.8,8.76-6.27,12.78L382.61,189.4z"/>
	<path class="st22" d="M396.43,159.9c0,0-0.82,6.35-4.66,13.06"/>
	<path class="st22" d="M400,162.83c0,0-1.48,9.42-4.21,13.37"/>
	<path class="st22" d="M401.28,170.14c0,0-1.28,7.28-3.39,10.81"/>
	<path class="st8" d="M280.03,206.88c0,0-16.44-1.11-28.88-2.32c-12.44-1.21-20.99-1.95-20.99-1.95L214.7,329.7
		c24.91,33.27,91.02-15.34,104.58,0.07c0,0-10.58-73.7-18.05-110.51C301.23,219.25,290.49,211.27,280.03,206.88z"/>
	<path class="st14" d="M280.03,206.88c0,0-3.68-15.52-3.33-32.29l-20.38-9.03c0,0,1.29,25.92-5.17,39
		C251.15,204.56,273,222.46,280.03,206.88z"/>
	<path class="st13" d="M276.7,174.59l-18.81-8.34l-0.27,3.51c0,0,1.9,17.35,20.74,28.07C277.44,191.78,276.52,183.36,276.7,174.59z"
		/>
	<path class="st14" d="M252.21,148.62c4.83-16.46,35.8-19.79,37.36,3.66c0.83,12.4,3.4,33.11-7.7,35.56
		C270.77,190.31,245.18,172.61,252.21,148.62z"/>
	<path class="st12" d="M274.91,157.76c-0.49-0.03-0.92,0.57-0.97,1.35c-0.05,0.77,0.31,1.42,0.8,1.45c0.49,0.03,0.92-0.57,0.97-1.35
		C275.76,158.44,275.4,157.79,274.91,157.76z"/>
	<path class="st12" d="M285.47,158.39c-0.49-0.03-0.92,0.57-0.97,1.35c-0.05,0.77,0.31,1.42,0.8,1.45c0.49,0.03,0.92-0.57,0.97-1.35
		C286.32,159.07,285.96,158.42,285.47,158.39z"/>
	<path class="st12" d="M268.44,155.7c0,0,4.48-1.79,8.31-0.94c0,0-0.55-2.7-1.49-2.82C274.32,151.81,269.48,152.41,268.44,155.7z"/>
	<path class="st13" d="M289.7,154.23c-0.05-0.66-0.1-1.31-0.14-1.94c-1.02-15.38-14.69-19.24-25.34-15.44l2.28,4.29
		c0,0,1.15,13.72,20.34,8.09C286.85,149.23,287.43,151.95,289.7,154.23z"/>
	<path class="st12" d="M283.39,155.7c0,0,2.16-0.56,3.59,0.62c0,0-0.67-2.57-2.05-2.99S283.39,155.7,283.39,155.7z"/>
	<path class="st12" d="M261.28,129.02c5.94-1.45,8.63-3.28,8.63-3.28s0.81,3.14-0.98,4.1c0,0,9.76-6.56,16.73-1.64
		c7.55,5.33,12.53,3.86,12.53,3.86s-1.16,2.65-3.75,3.43c0,0,4.1,4.46,2.59,8.83c-1.5,4.37-4.23,4.31-4.92,8.17
		c0,0-5.67-2.43-6.45-7.89c0,0-1.39,2.15-0.62,4.34c0,0-12.86,1.31-18.53-7.78c0,0-1.52,8.96-5.23,9.89c0,0,1.66,8.88-1.03,10.19
		l-3.92,15.19c0,0-4.23-8.31-11.47-16.31c-7.24-8,4.1-15.57,4.1-15.57s-2.73-1.04-4.78-1.04c0,0,2.46-5.05,6.97-0.68
		C251.15,142.81,247.49,132.38,261.28,129.02z"/>
	<path class="st14" d="M261.28,162.46c0,0-8.06-10.44-9.78-4.04c-1.24,4.59,6.72,10.85,6.72,10.85L261.28,162.46z"/>
	<path class="st22" d="M258.8,165.01c0,0-4.28-9.29-5.1-6.12c-0.82,3.17,2.55,5.49,2.55,5.49"/>
	<path class="st22" d="M273.31,163.21c0,0-2.58-2.22-6.36-2.44"/>
	<path class="st22" d="M285.19,163.16c0,0,1.55-0.98,3.32-1.32"/>
	<path class="st12" d="M261.77,155.7c0,0,0.43,9.18,7.53,15.29c0,0,0.9-1.95,4-2.5s9.66,1.65,9.66,1.65s4.93-4.03,7.45-0.86
		c2.51,3.17,3.95,18.33-5.24,20.38c-9.18,2.05-19.57-1.57-21.75-8.57c0,0,1.38-14.82-4.63-21.43L261.77,155.7z"/>
	<path class="st16" d="M283.84,173.51c0,0-6.75-0.95-10.29-2.53C273.55,170.99,276.28,181.3,283.84,173.51z"/>
	<path class="st22" d="M276.7,179.1c0,0,2.93-1.39,4.51,0"/>
	<path class="st22" d="M281.58,160.31c0,0,0.08,5.36,4.12,9.09c0,0-3.03,1.87-5.46-0.33"/>
	<path class="st14" d="M319.61,228.08l28.61,14.91c0,0,29.57-44.17,34.39-53.58l11.89,6.33c0,0-26.04,71.82-34.07,73.84
		c-8.04,2.02-43.71-10.91-43.71-10.91L319.61,228.08z"/>
	<path class="st13" d="M340.36,238.9l-20.76-10.82l-2.89,30.58c0,0,17.04,6.18,30.22,9.33C342.14,258.48,340.69,247.17,340.36,238.9
		z"/>
	<path class="st8" d="M280.03,206.88c0,0,10.39-1.82,21.61,4.84c7.13,4.24,38.95,19.39,38.95,19.39s-6.82,30.1-16.79,43.52
		c0,0-23.67-17.22-33.37-25.18C280.71,241.49,280.03,206.88,280.03,206.88z"/>
	<line class="st23" x1="308.71" y1="261.64" x2="301.23" y2="237.42"/>
	<path class="st23" d="M251.36,212.53c0,0,24.16,17,33.82-2.95"/>
	<path class="st23" d="M335.6,228.72c0,0-5.28,22.32-16.31,43.39"/>
	<path class="st22" d="M390.64,171.23c0,0,6.8,5.69,7.88,11.29"/>
	<path class="st14" d="M382.61,189.4c0,0,0.81-6.6,4.07-9.08c7.82-5.96,9.11-11.58,10.5-7.94c0.72,1.88-1.18,8.89-5.14,9.54
		c0,0,1.09,4.59-1.17,11.89L382.61,189.4z"/>
	<path class="st11" d="M234.37,369.05l-102.42-18.06c-4.35-0.77-7.26-4.92-6.49-9.27l18.06-102.42c0.77-4.35,4.92-7.26,9.27-6.49
		l102.42,18.06c4.35,0.77,7.26,4.92,6.49,9.27l-18.06,102.42C242.87,366.91,238.72,369.82,234.37,369.05z"/>
	<path class="st12" d="M184.88,207.92c0,0-1.14,44.6,20.32,46.44c0,0,5.81-13.73,0-28.62C199.39,210.84,184.88,207.92,184.88,207.92
		z"/>
	<path class="st14" d="M206.3,211.13c0,0-43.02,15.79-43.87,28.64c-0.86,12.86,19.64,73.32,19.64,73.32l13.28-3.26l-6.92-62.77
		l29.61-8.14C218.04,238.92,218.89,224.48,206.3,211.13z"/>
	<path class="st13" d="M214.32,239.94l1.08-14.54c-1.31-3.38-3.28-7.12-6.2-10.88l-7.93-1.41c-2.73,1.11-6.36,2.64-10.29,4.47
		c0.72,7.11,1.57,18.85,0.72,28.59L214.32,239.94z"/>
	<path class="st8" d="M251.15,204.56c0,0-4.99-8.64-19.93-7.3c-18.68,1.68-46.34,10.66-46.34,10.66s19.21,25.77,20.32,46.44
		l21.64-10.75C226.84,243.62,252.44,222.91,251.15,204.56z"/>
	<path class="st14" d="M195.34,309.83c0,0,3.25,0.15,5.82,2.98c2.57,2.83,7.82,6.36,7.52,8.61s-7.69-2.25-7.69-2.25
		s-1.29,3.22,1.77,9.16c3.05,5.94,4.66,9.16,0.32,7.88c0,0-0.48,2.57-2.57,1.77c-2.09-0.8-3.05-2.41-3.05-2.41s-1.05,1.52-2.12,1.45
		c-1.07-0.08-4.47-4.18-4.47-4.18s-5.46,0.32-7.07-2.17s-1.74-17.57-1.74-17.57L195.34,309.83z"/>
	<path class="st22" d="M203.09,336.2c0,0-5.62-5.99-6.91-12.88"/>
	<path class="st22" d="M197.46,335.56c0,0-3.94-4.36-6.31-11.58"/>
	<path class="st22" d="M190.88,332.83c0,0-3.87-4.68-4.75-8.85"/>
	<path class="st23" d="M194.31,205.08c0,0,15.44,20.75,14.39,47.54"/>
	<path class="st23" d="M226.84,243.62c0,0,18.31-10.99,20.98-32.49"/>
	<rect x="389.18" y="130.37" class="st24" width="137.58" height="30.27"/>
	<text transform="matrix(1 0 0 1 389.1802 148.372)" class="st16 st25 st26">Register</text>
</g>
<g id="Layer_2">
	<path class="st27" d="M221.45,250.93c18.49-81.28,103.01-130.07,182.37-104.55c1.59,0.51,3.2,1.05,4.82,1.6
		c103.74,35.66,69.7,141.02,121.57,173.44c51.87,32.42,89.15,79.42,66.46,141.02c-22.69,61.59-160.47,119.95-269.07,53.49
		C242.22,463.7,197.92,354.37,221.45,250.93z"/>
	
		<ellipse transform="matrix(0.158 -0.9874 0.9874 0.158 8.8279 298.2297)" class="st27" cx="179.28" cy="143.94" rx="67.27" ry="67.27"/>
	<linearGradient id="SVGID_1_" gradientUnits="userSpaceOnUse" x1="260.2068" y1="253.3506" x2="677.0154" y2="253.3506">
		<stop  offset="0" style="stop-color:#FFFFFF;stop-opacity:0.2"/>
		<stop  offset="1" style="stop-color:#FFFFFF;stop-opacity:0.7"/>
	</linearGradient>
	<path class="st28" d="M502.78,447.86H267.51c-5.28,0-8.81-5.44-6.66-10.26L427.78,63.16c1.17-2.63,3.78-4.32,6.66-4.32h235.27
		c5.28,0,8.81,5.44,6.66,10.26L509.44,443.54C508.27,446.17,505.66,447.86,502.78,447.86z"/>
	<path class="st18" d="M574.09,183.75l75.93-170.3c1.84-4.13-1.18-8.79-5.7-8.79H431.27c-7.91,0-15.07,4.65-18.29,11.87
		L335.9,189.41c-1.84,4.13,1.18,8.79,5.7,8.79h210.2C561.44,198.2,570.16,192.54,574.09,183.75z"/>
	<path class="st29" d="M546.53,300.45l75.93-170.3c1.84-4.13-1.18-8.79-5.7-8.79H403.71c-7.91,0-15.07,4.65-18.29,11.87
		l-77.08,172.89c-1.84,4.13,1.18,8.79,5.7,8.79h210.2C533.88,314.91,542.61,309.25,546.53,300.45z"/>
	<polyline class="st30" points="449.97,240.28 459.7,240.28 433.56,291.34 275.52,291.34 281.9,278.88 	"/>
	
		<ellipse transform="matrix(0.7556 -0.655 0.655 0.7556 61.7814 308.8414)" class="st31" cx="444.79" cy="71.62" rx="47.98" ry="36.05"/>
	<g>
		
			<ellipse transform="matrix(0.7556 -0.655 0.655 0.7556 61.7803 308.8397)" class="st32" cx="444.79" cy="71.62" rx="42.33" ry="31.81"/>
	</g>
	<path class="st33" d="M445.46,78.97c0,0-19.28,3.19-27.51,6.43c-5.59,3.37-6.48,6.04-7.81,10.06c0,0-0.01,0.03-0.02,0.04
		c4.48,7.84,13.01,12.82,24.15,12.82c14.39,0,29.19-8.3,38.67-20.36C467.77,80.38,445.46,78.97,445.46,78.97z"/>
	<path class="st34" d="M438.68,70.76l-3.32,14.05c-0.42,1.76,0.46,3.23,2.12,3.5c2.6,0.42,6.75,0.39,11.17-2.44
		c1.35-0.86,2.23-2.3,2.33-3.66c0.47-6.56,1.8-19.99,1.8-19.99L438.68,70.76z"/>
	<path class="st34" d="M435.68,55.88c0,0-9.05,18.34-7.29,23.26c2.04,3.36,20.25-4.19,23.23-9.1c2.98-4.92,9.83-13.82,4.5-19.39
		C450.77,45.08,442.53,46.97,435.68,55.88z"/>
	<path class="st35" d="M435.68,55.88c0,0-1.59-6.48,3.89-10.29c5.48-3.82,12.51-3.05,15.05,0.76c2.53,3.82,2.75,4.39,2.75,4.39
		s2.7,0.57,3.59,3.43c0.9,2.86-4.81,10.11-7.13,12.21c-2.32,2.1-1.84,2.15-1.84,2.15l-0.78-1.01c0,0,0.44-5.53,1.56-8.78
		c0.3-1.72-1.66-4.2-5.12-4.77C444.19,53.41,442.92,56.63,435.68,55.88z"/>
	<path class="st34" d="M453.34,64.22c0,0,1.26-2.34,3.5-1.68c2.23,0.74-2.22,7.75-4.58,7.27C450,69.23,453.34,64.22,453.34,64.22z"
		/>
	<path class="st18" d="M451.13,79.55c0,0-4.84,5.34-9.6,6.87c-0.84,0.25-2.07,1.91-2.07,1.91l-0.87-2.29c0,0-3.27-1.91-2.32-5.22
		l-0.65,0.51l-1.75,4.32c0,0-1.29,4.07-1.22,5.6l4.38-2.42c0,0,2.67,0.89,4.8,0.13c0,0,0.91,3.05,1.72,3.31
		c0.82,0.25,7.44-5.98,8.44-8.14c1.13-2.16,0.86-4.33,0.86-4.33L451.13,79.55z"/>
	<path class="st36" d="M590.87,87.62h-92.29c-2.83,0-4.29-2.3-3.26-5.13l13.06-35.89c1.03-2.83,4.16-5.13,6.99-5.13h92.29
		c2.83,0,4.29,2.3,3.26,5.13l-13.06,35.89C596.83,85.32,593.7,87.62,590.87,87.62z"/>
	<polygon class="st32" points="596.2,57.71 516.73,57.71 518.13,53.86 597.6,53.86 	"/>
	<polygon class="st32" points="561.31,66.68 513.46,66.68 514.86,62.84 562.71,62.84 	"/>
	<polygon class="st32" points="522.9,74.8 510.51,74.8 511.91,70.95 524.3,70.95 	"/>
	<path class="st32" d="M502.85,104.12c-1.29,3.19-4.92,5.77-8.11,5.77c-3.19,0-4.73-2.59-3.44-5.77c1.29-3.19,4.92-5.77,8.11-5.77
		C502.6,98.35,504.14,100.94,502.85,104.12z"/>
	<path class="st32" d="M522.91,104.12c-1.29,3.19-4.92,5.77-8.11,5.77c-3.19,0-4.73-2.59-3.44-5.77c1.29-3.19,4.92-5.77,8.11-5.77
		C522.66,98.35,524.2,100.94,522.91,104.12z"/>
	<path class="st32" d="M542.97,104.12c-1.29,3.19-4.92,5.77-8.11,5.77c-3.19,0-4.73-2.59-3.44-5.77c1.29-3.19,4.92-5.77,8.11-5.77
		C542.72,98.35,544.26,100.94,542.97,104.12z"/>
	<path class="st37" d="M563.03,104.12c-1.29,3.19-4.92,5.77-8.11,5.77c-3.19,0-4.73-2.59-3.44-5.77c1.29-3.19,4.92-5.77,8.11-5.77
		C562.78,98.35,564.32,100.94,563.03,104.12z"/>
	<path class="st36" d="M583.09,104.12c-1.29,3.19-4.92,5.77-8.11,5.77c-3.19,0-4.73-2.59-3.44-5.77c1.29-3.19,4.92-5.77,8.11-5.77
		C582.84,98.35,584.38,100.94,583.09,104.12z"/>
	<g>
		<polygon class="st36" points="535.43,121.68 509.97,148.14 483.58,158.6 513.49,180.55 543.54,154.91 		"/>
		<polygon class="st38" points="529.4,137.05 509.97,148.14 493.53,158.53 515.82,174.53 536.89,155.29 		"/>
		<polygon class="st39" points="535.43,121.68 509.97,148.14 483.58,158.6 513.4,180.76 543.54,154.91 		"/>
		<path class="st40" d="M523.47,157.37c-0.41,1.02-1.57,1.85-2.59,1.85s-1.51-0.83-1.1-1.85c0.41-1.02,1.57-1.85,2.59-1.85
			C523.39,155.53,523.88,156.35,523.47,157.37z"/>
		<polyline class="st39" points="498.43,139.11 520.97,156.96 480.75,159.01 		"/>
		<polyline class="st39" points="511.74,186.91 521.79,156.96 548.3,154.29 		"/>
		<line class="st39" x1="536.92" y1="117.98" x2="521.79" y2="156.96"/>
	</g>
	<path class="st32" d="M500.48,138.77c-0.69,1.71-2.64,3.1-4.35,3.1c-1.71,0-2.54-1.39-1.85-3.1c0.69-1.71,2.64-3.1,4.35-3.1
		C500.35,135.67,501.17,137.06,500.48,138.77z"/>
	<path class="st37" d="M482.25,159.03c-0.69,1.71-2.64,3.1-4.35,3.1c-1.71,0-2.54-1.39-1.85-3.1c0.69-1.71,2.64-3.1,4.35-3.1
		C482.11,155.93,482.94,157.32,482.25,159.03z"/>
	<path class="st32" d="M514.66,187.4c-0.69,1.71-2.64,3.1-4.35,3.1c-1.71,0-2.54-1.39-1.85-3.1c0.69-1.71,2.64-3.1,4.35-3.1
		C514.53,184.3,515.36,185.69,514.66,187.4z"/>
	<path class="st32" d="M551.91,154.33c-0.69,1.71-2.64,3.1-4.35,3.1c-1.71,0-2.54-1.39-1.85-3.1c0.69-1.71,2.64-3.1,4.35-3.1
		C551.77,151.23,552.6,152.62,551.91,154.33z"/>
	<path class="st37" d="M540.36,116.95c-0.69,1.71-2.64,3.1-4.35,3.1s-2.54-1.39-1.85-3.1c0.69-1.71,2.64-3.1,4.35-3.1
		C540.22,113.85,541.05,115.24,540.36,116.95z"/>
	<polygon class="st33" points="470,142.81 392.75,142.81 398.65,128.19 475.91,128.19 	"/>
	<polygon class="st36" points="423.48,175.69 379.46,175.69 381.99,169.43 426.01,169.43 	"/>
	<polygon class="st36" points="416.89,163.16 384.52,163.16 390.43,148.55 422.79,148.55 	"/>
	<path class="st18" d="M588.46,319.09l37.8-84.79c0.92-2.06-0.59-4.38-2.84-4.38H517.35c-3.94,0-7.5,2.32-9.11,5.91l-38.38,86.08
		c-0.92,2.06,0.59,4.38,2.84,4.38h104.66C582.16,326.29,586.51,323.47,588.46,319.09z"/>
	
		<ellipse transform="matrix(0.774 -0.6332 0.6332 0.774 -50.9027 410.299)" class="st36" cx="549.25" cy="276.45" rx="41.78" ry="27.97"/>
	<g>
		<defs>
			
				<ellipse id="SVGID_00000129199644576543763160000003863934963321698197_" transform="matrix(0.774 -0.6332 0.6332 0.774 -50.9027 410.299)" cx="549.25" cy="276.45" rx="41.78" ry="27.97"/>
		</defs>
		<clipPath id="SVGID_00000158018695279897239580000016495158097702646686_">
			<use xlink:href="#SVGID_00000129199644576543763160000003863934963321698197_"  style="overflow:visible;"/>
		</clipPath>
		<path style="clip-path:url(#SVGID_00000158018695279897239580000016495158097702646686_);fill:#EE7353;" d="M552.09,280.01
			c0,0,17.2,8.55,19.02,16.38c1.82,7.83-5.81,28.48-5.81,28.48h-68.36c0,0,11.21-24.21,19.92-29.91
			c8.71-5.7,25.53-10.05,25.53-10.05L552.09,280.01z"/>
		<g style="clip-path:url(#SVGID_00000158018695279897239580000016495158097702646686_);">
			<path class="st43" d="M545.03,274.45l-5.36,11.59c-0.67,1.45-0.27,2.77,0.98,3.15c1.96,0.59,5.22,0.93,9.24-1.06
				c1.22-0.61,2.2-1.75,2.54-2.89c1.65-5.51,5.33-16.76,5.33-16.76L545.03,274.45z"/>
			<path class="st43" d="M545.61,261.58c0,0-10.7,14.71-10.29,19.03c0.94,3.03,16.7-1.73,20.01-5.62
				c3.3-3.89,10.43-10.81,7.33-16.01C559.57,253.8,552.73,254.66,545.61,261.58z"/>
		</g>
		<path style="clip-path:url(#SVGID_00000158018695279897239580000016495158097702646686_);fill:#1A1C1C;" d="M546.06,259.42
			c0,0-0.17,0.23-0.38,0.58c-0.62,1.05-1.54,3.15,1.03,3.29c3.43,0.18,3.43,0.18,3.43,0.18s5.51-3.13,7.67,0.18
			c1.61,3.32-3.64,5.35-3.2,7.01c0.44,1.66,0.22,1.29-0.53,2.21c-0.74,0.92-1.34,2.4-3.81,3.5c-2.48,1.11-4.43,0.92-6.79,2.21
			c-2.37,1.29-6.93-0.18-7.41-1.29c-1.1-0.92-1.74,1.11-2.44,2.4c-0.71,1.29-2.88,1.66-0.79,3.32c2.1,1.66,3.64,2.4,7.3,0.18
			c3.66-2.21,3.77-2.03,7.46-2.95c3.69-0.92,6.44-2.79,7.84-5.08c1.41-2.29,1.86-5.24,3.05-6.35c1.18-1.11,1.84,0,1.32,1.29
			s4.5-1.11,5.7-4.98c1.2-3.87-0.91-3.69-1.12-5.9c-0.21-2.21,2.31-4.79-0.38-6.82c-2.68-2.03-5.2,0.55-6.16-0.74
			c-0.95-1.29-5.12-1.47-8.45,1.29c-3.33,2.77-3.52,6.68-3.52,6.68"/>
		<path style="clip-path:url(#SVGID_00000158018695279897239580000016495158097702646686_);fill:#FF8F6A;" d="M557.86,269.12
			c0,0,1.45-1.87,3.07-1.11c1.6,0.83-3.26,6.36-5.02,5.74C554.26,273.07,557.86,269.12,557.86,269.12z"/>
		<path style="clip-path:url(#SVGID_00000158018695279897239580000016495158097702646686_);fill:#1A1C1C;" d="M534.92,277.86
			c0,0,1.57-5.72,5.56-6.45c3.99-0.74,5.78,1.66,5.52,3.69c-0.27,2.03,1.5,3.13,1.5,3.13S537.44,283.02,534.92,277.86z"/>
	</g>
	<g>
		<path class="st18" d="M540.91,433.56l37.8-84.79c0.92-2.06-0.59-4.38-2.84-4.38H469.8c-3.94,0-7.5,2.32-9.11,5.91l-38.38,86.08
			c-0.92,2.06,0.59,4.38,2.84,4.38h104.66C534.61,440.76,538.96,437.94,540.91,433.56z"/>
	</g>
	
		<ellipse transform="matrix(0.774 -0.6332 0.6332 0.774 -133.8185 405.756)" class="st36" cx="501.43" cy="390.32" rx="42.7" ry="28.58"/>
	<g>
		<defs>
			
				<ellipse id="SVGID_00000031175585164332295800000008752638778473242286_" transform="matrix(0.774 -0.6332 0.6332 0.774 -133.8185 405.756)" cx="501.43" cy="390.32" rx="42.7" ry="28.58"/>
		</defs>
		<clipPath id="SVGID_00000090974357593988027580000004125546208473547711_">
			<use xlink:href="#SVGID_00000031175585164332295800000008752638778473242286_"  style="overflow:visible;"/>
		</clipPath>
		<path style="clip-path:url(#SVGID_00000090974357593988027580000004125546208473547711_);fill:#1A1C1C;" d="M511.13,380.39
			c0,0,5.21-2.48,5.9,0.53c0.7,3.01-1.6,5.15-1.6,5.15s4.7-1.29,5.96,2.72c1.26,4.02-2.52,5.93-0.96,7.36
			c1.57,1.43,4.81,4.49,0.27,9.58c-4.54,5.09-11.18,10.93-18.87,7.17c-7.69-3.76-5.24-22.05-5.24-22.05l1.88-5.34L511.13,380.39z"/>
		<path style="clip-path:url(#SVGID_00000090974357593988027580000004125546208473547711_);fill:#1A1C1C;" d="M506.11,365.04
			c0,0-11.59,0.98-15.25,9.1c-3.66,8.12,3.62,8.69,3.62,8.69L506.11,365.04z"/>
		<path style="clip-path:url(#SVGID_00000090974357593988027580000004125546208473547711_);fill:#FF8F6A;" d="M430.77,420.25
			c0.75,1.35,0.75,1.35,0.75,1.35s8.93,10.66,16.89,17.48h16.56c8.64-7.87,20.42-21.59,20.48-22.15c0.08-0.8,10.38-12.01,8.11-16.58
			c-2.27-4.57-5.22-3.84-5.22-3.84s-3.36,0.46-7.13,4.36c-3.77,3.91-22.38,32.75-22.38,32.75s-2.38-4.31-6.78-7.59
			c-4.4-3.29-17.27-10.22-17.27-10.22s0.79-5.57,0.71-6.63c-0.07-1.07-3.28-5.92-4.25-4.88c-0.97,1.04,1.3,5.61,1.3,5.61
			S430.02,418.91,430.77,420.25z"/>
		<path style="clip-path:url(#SVGID_00000090974357593988027580000004125546208473547711_);fill:#EE7353;" d="M472.19,431
			c0,0,0.49,3.55,1.44,8.08h32.87c0.73-7.42,2.26-22.34,3.18-25.87c1.24-4.76,0.14-14.89,0.54-17.67s-7.55-1.76-7.55-1.76
			l-10.35,0.17l-1.67,0.72c-2.29,0.98-4.37,2.72-5.73,4.79c-1.28,1.96-3.17,4.82-5.71,8.57c-4.09,3.1-13.1,8.49-12.44,15.29
			C467.43,430.1,472.19,431,472.19,431z"/>
		<path style="clip-path:url(#SVGID_00000090974357593988027580000004125546208473547711_);fill:#FF8F6A;" d="M495.79,387.64
			c0,0-9.19,11.37-11.72,25.67c3-0.92,12.12-9.29,17.49-14.39c2.27-2.15,2.48-3.33,2.06-5.53c-0.21-1.09,0.75-4.09,2.02-7.54
			C506.49,381.09,495.79,387.64,495.79,387.64z"/>
		<path style="clip-path:url(#SVGID_00000090974357593988027580000004125546208473547711_);fill:#FF8F6A;" d="M524.63,434.14
			c0,0,1.43,1.97,3.79,4.94h14.71c-2.84-3.76-5.09-6.79-5.79-7.85c-2.4-3.64-19.22-40.31-29.46-35.75
			c-1.89,0.84-8.74,6.59-5.94,13.03C504.72,414.96,524.63,434.14,524.63,434.14z"/>
		<g style="clip-path:url(#SVGID_00000090974357593988027580000004125546208473547711_);">
			<g>
				<path class="st43" d="M495.38,372.63c-1.44,1.82-5.08,6.59-7.24,10.77c-1.89,3.67-0.6,7.03,2.92,7.4
					c5.06,0.54,12.77-0.71,15.3-3.61c3.76-4.3,11.83-11.92,8.56-17.83c-3.18-5.75-10.43-5.15-18.23,1.87
					C496.21,371.66,495.77,372.14,495.38,372.63z"/>
			</g>
		</g>
		<path style="clip-path:url(#SVGID_00000090974357593988027580000004125546208473547711_);fill:#1A1C1C;" d="M498.79,368.88
			c0,0-5.08,8.3,9.34,13.59l1.81,0.82c0,0,6.3-5,6.39-10.29c0.09-5.29-2.64-7.22-5.39-8.37
			C508.19,363.48,500.72,366.9,498.79,368.88z"/>
		<path style="clip-path:url(#SVGID_00000090974357593988027580000004125546208473547711_);fill:#FF8F6A;" d="M507.74,383.67
			c0,0,3.65-2.52,3.61-0.19c-0.04,2.32-5.16,4.81-5.7,3.84C505.11,386.34,507.74,383.67,507.74,383.67z"/>
	</g>
	<path class="st33" d="M425.65,363.29H308.82c-3.58,0-5.32-2.91-3.87-6.49l8.3-20.55c1.45-3.58,5.53-6.49,9.11-6.49H439.2
		c3.58,0,5.32,2.91,3.87,6.49l-8.3,20.55C433.31,360.39,429.23,363.29,425.65,363.29z"/>
	<polygon class="st18" points="424.74,348.15 324.13,348.15 326.1,343.28 426.7,343.28 	"/>
	<g>
		<g>
			<path class="st50" d="M331.16,24.8h-3.95c-0.7,0-1.04-0.57-0.75-1.27l1.6-3.95c0.28-0.7,1.08-1.27,1.78-1.27h3.95
				c0.7,0,1.04,0.57,0.75,1.27l-1.6,3.95C332.66,24.23,331.86,24.8,331.16,24.8z"/>
			<path class="st51" d="M371.69,24.8h-3.95c-0.7,0-1.04-0.57-0.75-1.27l1.6-3.95c0.28-0.7,1.08-1.27,1.78-1.27h3.95
				c0.7,0,1.04,0.57,0.75,1.27l-1.6,3.95C373.18,24.23,372.39,24.8,371.69,24.8z"/>
		</g>
		<g>
			<path class="st51" d="M323.63,43.44h-3.95c-0.7,0-1.04-0.57-0.75-1.27l1.6-3.95c0.28-0.7,1.08-1.27,1.78-1.27h3.95
				c0.7,0,1.04,0.57,0.75,1.27l-1.6,3.95C325.13,42.87,324.33,43.44,323.63,43.44z"/>
			<path class="st50" d="M343.89,43.44h-3.95c-0.7,0-1.04-0.57-0.75-1.27l1.6-3.95c0.28-0.7,1.08-1.27,1.78-1.27h3.95
				c0.7,0,1.04,0.57,0.75,1.27l-1.6,3.95C345.39,42.87,344.59,43.44,343.89,43.44z"/>
			<path class="st50" d="M364.15,43.44h-3.95c-0.7,0-1.04-0.57-0.75-1.27l1.6-3.95c0.28-0.7,1.08-1.27,1.78-1.27h3.95
				c0.7,0,1.04,0.57,0.75,1.27l-1.6,3.95C365.65,42.87,364.85,43.44,364.15,43.44z"/>
			<path class="st50" d="M380.36,43.44h-3.95c-0.7,0-1.04-0.57-0.75-1.27l1.6-3.95c0.28-0.7,1.08-1.27,1.78-1.27h3.95
				c0.7,0,1.04,0.57,0.75,1.27l-1.6,3.95C381.86,42.87,381.06,43.44,380.36,43.44z"/>
		</g>
		<g>
			<path class="st50" d="M316.1,62.08h-3.95c-0.7,0-1.04-0.57-0.75-1.27l1.6-3.95c0.28-0.7,1.08-1.27,1.78-1.27h3.95
				c0.7,0,1.04,0.57,0.75,1.27l-1.6,3.95C317.6,61.52,316.8,62.08,316.1,62.08z"/>
			<path class="st50" d="M299.89,62.08h-3.95c-0.7,0-1.04-0.57-0.75-1.27l1.6-3.95c0.28-0.7,1.08-1.27,1.78-1.27h3.95
				c0.7,0,1.04,0.57,0.75,1.27l-1.6,3.95C301.39,61.52,300.59,62.08,299.89,62.08z"/>
			<path class="st50" d="M336.36,62.08h-3.95c-0.7,0-1.04-0.57-0.75-1.27l1.6-3.95c0.28-0.7,1.08-1.27,1.78-1.27h3.95
				c0.7,0,1.04,0.57,0.75,1.27l-1.6,3.95C337.86,61.52,337.06,62.08,336.36,62.08z"/>
			<path class="st51" d="M356.62,62.08h-3.95c-0.7,0-1.04-0.57-0.75-1.27l1.6-3.95c0.28-0.7,1.08-1.27,1.78-1.27h3.95
				c0.7,0,1.04,0.57,0.75,1.27l-1.6,3.95C358.12,61.52,357.32,62.08,356.62,62.08z"/>
		</g>
		<g>
			<path class="st50" d="M308.57,80.72h-3.95c-0.7,0-1.04-0.57-0.75-1.27l1.6-3.95c0.28-0.7,1.08-1.27,1.78-1.27h3.95
				c0.7,0,1.04,0.57,0.75,1.27l-1.6,3.95C310.06,80.16,309.27,80.72,308.57,80.72z"/>
		</g>
	</g>
	<g>
		<path class="st33" d="M332.77,390.73h-5.57c-0.99,0-1.46-0.8-1.06-1.79l2.25-5.57c0.4-0.99,1.52-1.78,2.51-1.78h5.57
			c0.99,0,1.46,0.8,1.06,1.78l-2.25,5.57C334.88,389.93,333.76,390.73,332.77,390.73z"/>
		<path class="st33" d="M389.89,390.73h-5.57c-0.99,0-1.46-0.8-1.06-1.79l2.25-5.57c0.4-0.99,1.52-1.78,2.51-1.78h5.57
			c0.99,0,1.46,0.8,1.06,1.78l-2.25,5.57C392,389.93,390.87,390.73,389.89,390.73z"/>
	</g>
	<path class="st51" d="M322.16,417.01h-5.57c-0.99,0-1.46-0.8-1.06-1.79l2.25-5.57c0.4-0.99,1.52-1.78,2.51-1.78h5.57
		c0.99,0,1.46,0.8,1.06,1.78l-2.25,5.57C324.26,416.21,323.14,417.01,322.16,417.01z"/>
	<path class="st37" d="M350.71,417.01h-5.57c-0.99,0-1.46-0.8-1.06-1.79l2.25-5.57c0.4-0.99,1.52-1.78,2.51-1.78h5.57
		c0.99,0,1.46,0.8,1.06,1.78l-2.25,5.57C352.82,416.21,351.7,417.01,350.71,417.01z"/>
	<path class="st51" d="M379.27,417.01h-5.57c-0.99,0-1.46-0.8-1.06-1.79l2.25-5.57c0.4-0.99,1.52-1.78,2.51-1.78h5.57
		c0.99,0,1.46,0.8,1.06,1.78l-2.25,5.57C381.38,416.21,380.26,417.01,379.27,417.01z"/>
	<path class="st51" d="M402.12,417.01h-5.57c-0.99,0-1.46-0.8-1.06-1.79l2.25-5.57c0.4-0.99,1.52-1.78,2.51-1.78h5.57
		c0.99,0,1.46,0.8,1.06,1.78l-2.25,5.57C404.23,416.21,403.11,417.01,402.12,417.01z"/>
	<path class="st51" d="M311.54,443.28h-5.57c-0.99,0-1.46-0.8-1.06-1.79l2.25-5.57c0.4-0.99,1.52-1.79,2.51-1.79h5.57
		c0.99,0,1.46,0.8,1.06,1.79l-2.25,5.57C313.65,442.48,312.53,443.28,311.54,443.28z"/>
	<path class="st51" d="M288.7,443.28h-5.57c-0.99,0-1.46-0.8-1.06-1.79l2.25-5.57c0.4-0.99,1.52-1.79,2.51-1.79h5.57
		c0.99,0,1.46,0.8,1.06,1.79l-2.25,5.57C290.8,442.48,289.68,443.28,288.7,443.28z"/>
	<path class="st51" d="M340.1,443.28h-5.57c-0.99,0-1.46-0.8-1.06-1.79l2.25-5.57c0.4-0.99,1.52-1.79,2.51-1.79h5.57
		c0.99,0,1.46,0.8,1.06,1.79l-2.25,5.57C342.21,442.48,341.09,443.28,340.1,443.28z"/>
	<path class="st37" d="M368.66,443.28h-5.57c-0.99,0-1.46-0.8-1.06-1.79l2.25-5.57c0.4-0.99,1.52-1.79,2.51-1.79h5.57
		c0.99,0,1.46,0.8,1.06,1.79l-2.25,5.57C370.77,442.48,369.64,443.28,368.66,443.28z"/>
	<g>
		<path class="st37" d="M300.93,469.55h-5.57c-0.99,0-1.46-0.8-1.06-1.79l2.25-5.57c0.4-0.99,1.52-1.79,2.51-1.79h5.57
			c0.99,0,1.46,0.8,1.06,1.79l-2.25,5.57C303.03,468.75,301.91,469.55,300.93,469.55z"/>
	</g>
	<polygon class="st36" points="429.91,280.1 271.87,280.1 298.01,229.04 456.05,229.04 	"/>
	
		<ellipse transform="matrix(0.7496 -0.6619 0.6619 0.7496 -67.0637 331.4562)" class="st37" cx="404.51" cy="254.36" rx="23.51" ry="18.34"/>
	<path class="st18" d="M399.16,264.91c-0.65,0-1.24-0.25-1.62-0.75l-5.37-7.15c-0.75-1-0.35-2.61,0.9-3.61c1.25-1,2.86-1,3.61,0
		l4.01,5.34l14.33-11.47c1.25-1,2.86-1,3.61,0c0.75,1,0.35,2.61-0.9,3.61l-16.59,13.28C400.53,264.66,399.81,264.91,399.16,264.91z"
		/>
	<path class="st52" d="M279.96,131.88c0,4.01-2.93,7.26-6.55,7.26c-3.62,0-6.55-3.25-6.55-7.26c0-4.01,2.93-7.26,6.55-7.26
		C277.02,124.63,279.96,127.88,279.96,131.88z"/>
	<path class="st18" d="M211.25,171.11c0,0-10.45,0.7-18.27,11.25c-7.82,10.55,3.52,49.25,37.14,64.89
		c21.89,8.6,23.45-10.95,17.98-24.63C242.62,208.94,226.79,174.32,211.25,171.11z"/>
	<path class="st51" d="M360.68,585.42c0,4.97-47.95,8.99-107.09,8.99s-107.09-4.03-107.09-8.99c0-4.97,47.95-8.99,107.09-8.99
		S360.68,580.46,360.68,585.42z"/>
	<path class="st17" d="M214.46,556.32c0,0,2.27-4.87,10.71-3.57c8.44,1.3,9.41,2.92,10.39,7.14c0.97,4.22,3.89,8.76,5.84,9.74
		c1.95,0.97,9.09,5.84,14.93,6.82c5.84,0.97,6.49,4.54,5.19,6.17c-1.3,1.62-23.37,2.92-28.24,2.27c0,0-16.55-0.32-20.45-1.62
		C208.95,581.96,214.14,557.94,214.46,556.32z"/>
	<path class="st17" d="M256.75,556.32c0,0,2.27-4.87,10.71-3.57c8.44,1.3,9.41,2.92,10.39,7.14c0.97,4.22,3.89,8.76,5.84,9.74
		c1.95,0.97,9.09,5.84,14.93,6.82c5.84,0.97,6.49,4.54,5.19,6.17c-1.3,1.62-23.37,2.92-28.24,2.27c0,0-16.55-0.32-20.45-1.62
		C251.23,581.96,256.42,557.94,256.75,556.32z"/>
	<path class="st53" d="M206.65,435.48c0,0-2.47-13.44,11.73-17.95c14.19-4.51,16.88,2.05,21.18,14.31
		c4.3,12.26-3.63,128.03-3.63,128.03s-17.3,0.39-21.49-2.08c0,0-11.56-76.82-10.7-95.53C204.6,443.54,206.65,435.48,206.65,435.48z"
		/>
	<path class="st54" d="M273.12,136.82c0,0,3.32,4.5,3.32,6.84c0,2.35-4.5,2.35-4.5,2.35L273.12,136.82z"/>
	<path class="st34" d="M257.12,91.04c0,0,9.6,2.46,15.04,17.2c5.44,14.74,1.81,46.08-1.81,49.76c-3.63,3.69-14.64,2.28-29.92-2.76
		c-16.14-5.33-21.59-22.11-24.48-33.18C210.43,100.87,228.86,79.06,257.12,91.04z"/>
	<path class="st43" d="M222.68,172.43l7.79-27.91c0,0,15.58-4.54,25.32,5.84l3.25,4.54v18.18
		C259.03,173.08,242.8,176.32,222.68,172.43z"/>
	<path class="st53" d="M200.93,322.7c0,0-5.84,34.08,0,73.03c5.84,38.95,17.53,42.84,28.24,42.84c10.71,0,13.63-31.16,15.58-44.79
		c1.95-13.63,9.74-60.37-4.87-71.08C225.27,311.99,208.72,311.01,200.93,322.7z"/>
	<path class="st53" d="M241.82,368.46c0,0-11.68-31.16,8.76-44.79c20.45-13.63,36.03-11.68,40.89,10.71
		c4.87,22.39,5.84,99.31-0.97,114.89C283.69,464.85,259.35,440.51,241.82,368.46z"/>
	<path class="st18" d="M218.55,172.28c0,0,2.17-7.64,4.12-8.29c1.95-0.65,25.96-3.25,38.95,4.54c5.84,4.54,5.19,7.79,5.19,7.79
		S228.06,168.89,218.55,172.28z"/>
	<path class="st33" d="M289.92,322.7c0,0,1.95,4.69,0.78,6.25c-1.56,1.56-45.74,17.2-92.25,5.86c-0.78,0,1.17-7.82,1.17-7.82
		L289.92,322.7z"/>
	<path class="st33" d="M198.01,252.27c-1.3-9.09-5.19-53.88-3.89-60.37c1.21-6.07,6.4-17.24,17.14-20.79
		c0.75-0.25,1.53-0.46,2.34-0.63c0,0,40.24-2.6,68.81,9.74c0,0,9.78,8.12,11.59,49.5c0,0-0.54,6.98-2.1,21.83
		c-1.56,14.85,0.78,25.8,3.13,40.65c2.35,14.85,7.04,29.71-10.16,32.84c-16.42,3.13-61.76,10.95-88.34,3.13
		c-5.47-3.91,2.35-21.89,2.35-35.96C198.84,278.13,198.01,252.27,198.01,252.27z"/>
	<path class="st53" d="M260.32,437.59c0,0-0.97-13.63,13.63-16.55c14.61-2.92,16.55,3.89,19.47,16.55
		c2.92,12.66-14.4,123.05-14.4,123.05s-19.11,1.1-23.01-1.82c0,0-4.47-76.44-1.54-94.94C257.4,445.38,260.32,437.59,260.32,437.59z"
		/>
	<path class="st55" d="M237.93,361.16c0,0,13.63,43.82,23.85,65.24"/>
	<path class="st56" d="M265.68,435.16c0,0,8.28-4.87,16.55,0"/>
	<path class="st56" d="M264.22,440.51c0,0,6.82-3.89,18.5,4.38"/>
	<path class="st56" d="M213.1,429.31c0,0,5.36-4.87,17.53,0.49"/>
	<path class="st56" d="M217,434.18c0,0,7.79-3.89,15.09,1.95"/>
	<line class="st55" x1="235.01" y1="441.97" x2="232.09" y2="541.29"/>
	<path class="st56" d="M275.25,358.72c0,0,11.03,6.49,15.58-3.89"/>
	<path class="st55" d="M286.29,360.02c0,0,5.19,40.24,3.89,66.86"/>
	<path class="st57" d="M252.78,151.57c0,0,3.41,8.76,14.85,7.3"/>
	<path class="st35" d="M267.46,97.49c0,0,5.55,7.63,5.89,12.13c0.35,4.51-6.93,9.01-7.97,11.78c-1.04,2.77,1.34,6.26,0.3,7.99
		c-1.04,1.73-1.37,5.28-1.37,5.28l0.36,3.93c0.13,1.44-0.84,2.74-2.26,3.02l-0.83,0.17c-1.2,0.24-2.39-0.4-2.84-1.53
		c-1.25-3.13-3.82-8.98-5.84-9.49c-2.77-0.69-5.55,4.16-6.59,6.59c-0.59,1.37-2.06,5.06-3.23,8.03c-1.03,2.59-3.45,4.36-6.23,4.55
		c-3,0.21-6.59,0.36-7.92-0.01c-2.43-0.69-14.86-23.66-15.2-34.75c-0.35-11.09,7.28-22.18,15.25-25.65
		C236.96,86.05,252.56,82.93,267.46,97.49z"/>
	<path class="st58" d="M211.31,193.84c0,3.12,13.06,50.17,10.98,58.49c-2.08,8.32-7.82,66.45-7.82,66.45"/>
	<path class="st59" d="M211.35,172.59"/>
	<path class="st35" d="M247.51,82.39c0,0,7.62,0.29,10.26-3.52c2.64-3.81,11.14-4.69,17.3,1.47c6.16,6.16,5.86,17.59,0.59,21.7
		c0,0,6.16-1.17,7.04,3.23c0.88,4.4-6.74,11.14-15.83,13.19c0,0-14.66-4.1-19.06-1.47c-4.4,2.64-34.01-0.29-34.01-0.29
		s-6.45-5.86-4.69-11.14c1.76-5.28,3.52,0.29,3.52,0.29s-1.47-7.33,8.21-17.88C230.51,77.4,243.99,83.27,247.51,82.39z"/>
	<path class="st60" d="M391.46,239.53l20.82,0.88c0,0-0.59,2.05-3.81,2.64c-3.22,0.59-15.25,2.05-15.25,2.05L391.46,239.53z"/>
	<path class="st61" d="M394.1,243.93c0,0,7.04-1.17,8.5-0.88c1.47,0.29,2.93,8.8,2.93,8.8l-5.57,5.86c0,0-2.05-0.88,0-4.1l1.17-2.05
		l-8.5-3.22L394.1,243.93z"/>
	<path class="st61" d="M373.87,248.91l8.8-1.17c0,0,7.33-7.33,8.8-8.21c1.47-0.88,8.8,10.55,9.68,12.02c0,1.17-4.4,4.98-8.8,5.57
		c-4.4,0.59-5.86-0.59-5.86-0.59l-9.67,3.81L373.87,248.91z"/>
	<path class="st43" d="M282.39,180.22c0,0-19.64-0.2-19.05,23.84c0.59,24.04,41.63,63.33,52.77,68.02
		c11.14,4.69,58.64-8.21,62.74-10.55c4.1-2.35,2.93-12.31-3.52-14.66l-48.67-2.35C326.67,244.51,296.17,182.18,282.39,180.22z"/>
	<path class="st62" d="M327.45,248.42c0,0,5.86,6.25,4.3,14.46"/>
	<path class="st62" d="M330.58,247.25c0,0,9.77,3.13,10.55,13.68"/>
	<line class="st52" x1="279.96" y1="131.88" x2="259.63" y2="131.88"/>
	<path class="st54" d="M262.03,134.3c0,0-1.38-5.99-6.45-3.23c-5.07,2.76,0.92,17.05,5.07,16.13
		C264.8,146.28,262.95,136.61,262.03,134.3z"/>
	<path class="st63" d="M219.66,106.13c0,0,14.07-3.23,24.04,7.33"/>
	<path class="st63" d="M221.52,103.98c0,0,6.06-6.45,16.42-3.71"/>
	<path class="st63" d="M220.15,108.87c0,0,4.3,0.39,7.23,5.28"/>
	<path class="st63" d="M262.76,80.92c0,0,14.07,4.4,10.85,17.3"/>
</g>
</svg>
